<svg width="128" height="128" viewBox="0 0 1024 1024"
     version="1.1" xmlns="http://www.w3.org/2000/svg">
    <path d="M1001.585493 6.784L728.774827 33.066667c-17.322667 1.664-36.010667 16.341333-41.728 32.768L512.454827 567.125333 337.009493 65.792c-5.717333-16.384-24.448-31.061333-41.728-32.725333L22.470827 6.784C5.190827 5.12-4.06784 17.024 1.777493 33.408L344.98816 987.733333c5.888 16.341333 24.789333 29.653333 42.154667 29.653334h267.178666c3.114667 0 5.717333-0.853333 7.637334-2.346667a23.68 23.68 0 0 0 11.733333-12.458667l1.664-4.608L1022.23616 33.408c5.888-16.384-3.370667-28.288-20.650667-26.624z"/>
</svg>